<?xml version="1.0" encoding="UTF-8"?>
<svg width="16px" height="16px" viewBox="0 0 16 16" version="1.1" xmlns="http://www.w3.org/2000/svg" xmlns:xlink="http://www.w3.org/1999/xlink">
    <!-- Generator: Sketch 41.1 (35376) - http://www.bohemiancoding.com/sketch -->
    <title>Combined Shape</title>
    <desc>Created with Sketch.</desc>
    <defs></defs>
    <g id="Page-1" stroke="none" stroke-width="1" fill="none" fill-rule="evenodd">
        <g id="До-загрузки-фото" transform="translate(-370.000000, -962.000000)" fill="#EC4A2F">
            <g transform="translate(187.000000, 84.000000)" id="Combined-Shape">
                <path d="M191,894 C195.418278,894 199,890.418278 199,886 C199,881.581722 195.418278,878 191,878 C186.581722,878 183,881.581722 183,886 C183,890.418278 186.581722,894 191,894 Z M190.128906,882 L192.003906,882 L191.845703,887.671875 L190.28125,887.671875 L190.128906,882 Z M190,889.634766 C190,889.32617 190.095702,889.082032 190.287109,888.902344 C190.478517,888.722655 190.73828,888.632812 191.066406,888.632812 C191.398439,888.632812 191.659179,888.721679 191.848633,888.899414 C192.038087,889.077149 192.132812,889.322264 192.132812,889.634766 C192.132812,889.943361 192.038087,890.186523 191.848633,890.364258 C191.659179,890.541993 191.398439,890.630859 191.066406,890.630859 C190.73828,890.630859 190.478517,890.541993 190.287109,890.364258 C190.095702,890.186523 190,889.943361 190,889.634766 Z"></path>
            </g>
        </g>
    </g>
</svg>