<?xml version="1.0" encoding="UTF-8"?>
<svg width="45px" height="45px" viewBox="0 0 45 45" version="1.1" xmlns="http://www.w3.org/2000/svg" xmlns:xlink="http://www.w3.org/1999/xlink">
    <!-- Generator: Sketch 41.1 (35376) - http://www.bohemiancoding.com/sketch -->
    <title>Логотип</title>
    <desc>Created with Sketch.</desc>
    <defs></defs>
    <g id="Page-1" stroke="none" stroke-width="1" fill="none" fill-rule="evenodd">
        <g id="До-загрузки-фото---Mobile" transform="translate(-20.000000, -89.000000)">
            <g id="Group-5" transform="translate(0.000000, 89.000000)">
                <g id="Шапка">
                    <g id="Логотип" transform="translate(20.000000, 0.000000)">
                        <path d="M45,22.5 C45,10.0736373 34.9263627,0 22.5,0 C10.0736373,0 0,10.0736373 0,22.5 C0,34.9263627 10.0736373,45 22.5,45 C34.9263627,45 45,34.9263627 45,22.5" id="Fill-1" fill="#729BD3"></path>
                        <g id="logo" transform="translate(10.546875, 11.953125)">
                            <path d="M23.8890849,11.3070101 C23.5534524,17.6081037 18.3378859,22.6140203 11.953125,22.6140203 C5.56836406,22.6140203 0.352797571,17.6081037 0.0171650913,11.3070101 L23.8890849,11.3070101 Z M0,6.77876533 L2.5218689e-16,2.7432678 C3.91465864e-16,0.514524056 1.27973526,-0.0124944661 2.85881491,1.56658518 L8.07643581,6.78420608 L0,6.77876533 Z M23.90625,6.77876533 L23.90625,2.7432678 C23.90625,0.514524056 22.6265147,-0.0124944661 21.0474351,1.56658518 L15.8298142,6.78420608 L23.90625,6.77876533 Z M0,6.78420608 L23.90625,6.78420608 L23.90625,11.3070101 L0,11.3070101 L0,6.78420608 Z" id="Combined-Shape" fill="#FFFFFF"></path>
                            <path d="M23.2955909,10.0147796 C21.254891,5.80794932 16.9427241,2.90751689 11.953125,2.90751689 C6.96352586,2.90751689 2.65135902,5.80794932 0.610659093,10.0147796 L23.295595,10.0147804 Z" id="Combined-Shape" fill="#FFFFFF"></path>
                            <ellipse id="Oval-5" fill="#729BD3" cx="7.43032095" cy="11.953125" rx="1.93834459" ry="1.93834459"></ellipse>
                            <ellipse id="Oval-5" fill="#729BD3" cx="16.1528716" cy="11.953125" rx="1.93834459" ry="1.93834459"></ellipse>
                        </g>
                    </g>
                </g>
            </g>
        </g>
    </g>
</svg>