<?xml version="1.0" encoding="UTF-8"?>
<svg width="64px" height="64px" viewBox="0 0 64 64" version="1.1" xmlns="http://www.w3.org/2000/svg" xmlns:xlink="http://www.w3.org/1999/xlink">
    <!-- Generator: Sketch 41.1 (35376) - http://www.bohemiancoding.com/sketch -->
    <title>Логотип</title>
    <desc>Created with Sketch.</desc>
    <defs></defs>
    <g id="Page-1" stroke="none" stroke-width="1" fill="none" fill-rule="evenodd">
        <g id="До-загрузки-фото" transform="translate(-222.000000, -179.000000)">
            <g transform="translate(187.000000, 84.000000)" id="Шапка">
                <g transform="translate(0.000000, 95.000000)">
                    <g id="Логотип" transform="translate(35.000000, 0.000000)">
                        <path d="M64,32 C64,14.3269508 49.6730492,0 32,0 C14.3269508,0 0,14.3269508 0,32 C0,49.6730492 14.3269508,64 32,64 C49.6730492,64 64,49.6730492 64,32" id="Fill-1" fill="#729BD3"></path>
                        <g id="logo" transform="translate(15.000000, 17.000000)">
                            <path d="M33.9755874,16.0810811 C33.4982435,25.0426364 26.0805489,32.1621622 17,32.1621622 C7.9194511,32.1621622 0.501756546,25.0426364 0.0244125743,16.0810811 L33.9755874,16.0810811 Z M0,9.64091069 L3.586658e-16,3.90153642 C5.56751451e-16,0.731767546 1.82006793,-0.0177699074 4.06587009,2.22803225 L11.4864865,9.64864865 L0,9.64091069 Z M34,9.64091069 L34,3.90153642 C34,0.731767546 32.1799321,-0.0177699074 29.9341299,2.22803225 L22.5135135,9.64864865 L34,9.64091069 Z M0,9.64864865 L34,9.64864865 L34,16.0810811 L0,16.0810811 L0,9.64864865 Z" id="Combined-Shape" fill="#FFFFFF"></path>
                            <path d="M33.1315071,14.243242 C30.2291783,8.26019459 24.0963188,4.13513514 17,4.13513514 C9.90368123,4.13513514 3.77082172,8.26019459 0.868492933,14.243242 L33.1315129,14.2432432 Z" id="Combined-Shape" fill="#FFFFFF"></path>
                            <ellipse id="Oval-5" fill="#729BD3" cx="10.5675676" cy="17" rx="2.75675676" ry="2.75675676"></ellipse>
                            <circle id="Oval-5" fill="#729BD3" cx="22.972973" cy="17" r="2.75675676"></circle>
                        </g>
                    </g>
                </g>
            </g>
        </g>
    </g>
</svg>