<?xml version="1.0" encoding="UTF-8"?>
<svg width="15px" height="15px" viewBox="0 0 15 15" version="1.1" xmlns="http://www.w3.org/2000/svg" xmlns:xlink="http://www.w3.org/1999/xlink">
    <!-- Generator: Sketch 41.1 (35376) - http://www.bohemiancoding.com/sketch -->
    <title>Combined Shape</title>
    <desc>Created with Sketch.</desc>
    <defs></defs>
    <g id="Page-1" stroke="none" stroke-width="1" fill="none" fill-rule="evenodd">
        <g id="До-загрузки-фото" transform="translate(-445.000000, -969.000000)" fill="#FFFFFF">
            <g transform="translate(187.000000, 84.000000)" id="Начать-поиск">
                <g transform="translate(0.000000, 857.000000)">
                    <g id="default">
                        <g id="icon" transform="translate(258.000000, 28.000000)">
                            <path d="M9.47653436,10.8907479 L12.8284271,14.2426407 C13.2189514,14.633165 13.8521164,14.633165 14.2426407,14.2426407 C14.633165,13.8521164 14.633165,13.2189514 14.2426407,12.8284271 L10.8907479,9.47653436 C11.589209,8.49571549 12,7.29583043 12,6 C12,2.6862915 9.3137085,0 6,0 C2.6862915,0 0,2.6862915 0,6 C0,9.3137085 2.6862915,12 6,12 C7.29583043,12 8.49571549,11.589209 9.47653436,10.8907479 Z M6,10 C8.209139,10 10,8.209139 10,6 C10,3.790861 8.209139,2 6,2 C3.790861,2 2,3.790861 2,6 C2,8.209139 3.790861,10 6,10 Z" id="Combined-Shape"></path>
                        </g>
                    </g>
                </g>
            </g>
        </g>
    </g>
</svg>