<?xml version="1.0" encoding="UTF-8"?>
<svg width="20px" height="16px" viewBox="0 0 20 16" version="1.1" xmlns="http://www.w3.org/2000/svg" xmlns:xlink="http://www.w3.org/1999/xlink">
    <!-- Generator: Sketch 41.1 (35376) - http://www.bohemiancoding.com/sketch -->
    <title>Shape</title>
    <desc>Created with Sketch.</desc>
    <defs></defs>
    <g id="Page-1" stroke="none" stroke-width="1" fill="none" fill-rule="evenodd">
        <g id="До-загрузки-фото" transform="translate(-222.000000, -671.000000)" fill="#8EAAD9">
            <g transform="translate(187.000000, 84.000000)" id="Шаг-2.-Загрузка-фотографии">
                <g transform="translate(35.000000, 585.000000)">
                    <g id="Заголовок">
                        <path d="M18.6062718,4.64855688 L16.2439024,4.64855688 L15.5156794,2.81154499 C15.3205575,2.31918506 14.8815331,2 14.3937282,2 L5.60627178,2 C5.12195122,2 4.67944251,2.31918506 4.48432056,2.81154499 L3.75609756,4.64855688 L1.39372822,4.64855688 C0.62369338,4.64855688 0,5.25636672 0,6.00679117 L0,16.6417657 C0,17.3921902 0.62369338,18 1.39372822,18 L18.6062718,18 C19.3763066,18 20,17.3921902 20,16.6417657 L20,6.00679117 C20,5.25636672 19.3763066,4.64855688 18.6062718,4.64855688 Z M10,16 C7.23911257,16 5,13.7608874 5,11 C5,8.23911257 7.23911257,6 10,6 C12.7608874,6 15,8.23911257 15,11 C15,13.7608874 12.7649959,16 10,16 Z M10,14 C11.6568542,14 13,12.6568542 13,11 C13,9.34314575 11.6568542,8 10,8 C8.34314575,8 7,9.34314575 7,11 C7,12.6568542 8.34314575,14 10,14 Z" id="Shape"></path>
                    </g>
                </g>
            </g>
        </g>
    </g>
</svg>