<?xml version="1.0" encoding="UTF-8"?>
<svg width="197px" height="90px" viewBox="0 0 197 90" version="1.1" xmlns="http://www.w3.org/2000/svg" xmlns:xlink="http://www.w3.org/1999/xlink">
    <!-- Generator: Sketch 41.1 (35376) - http://www.bohemiancoding.com/sketch -->
    <title>Картинка</title>
    <desc>Created with Sketch.</desc>
    <defs>
        <linearGradient x1="50%" y1="0%" x2="50%" y2="98.2481665%" id="linearGradient-1">
            <stop stop-color="#92DA7A" offset="0%"></stop>
            <stop stop-color="#55CB68" offset="100%"></stop>
        </linearGradient>
        <linearGradient x1="50%" y1="98.2481665%" x2="50%" y2="2.94902991e-15%" id="linearGradient-2">
            <stop stop-color="#8778E1" offset="0%"></stop>
            <stop stop-color="#AE8FE6" offset="100%"></stop>
        </linearGradient>
        <linearGradient x1="50%" y1="100%" x2="50%" y2="1.29743304%" id="linearGradient-3">
            <stop stop-color="#729BD3" offset="0%"></stop>
            <stop stop-color="#8DB7F1" offset="100%"></stop>
        </linearGradient>
    </defs>
    <g id="Page-1" stroke="none" stroke-width="1" fill="none" fill-rule="evenodd">
        <g id="До-загрузки-фото" transform="translate(-603.000000, -717.000000)">
            <g transform="translate(187.000000, 84.000000)" id="Шаг-2.-Загрузка-фотографии">
                <g transform="translate(35.000000, 585.000000)">
                    <g id="Картинка" transform="translate(378.000000, 48.000000)">
                        <g id="Group" transform="translate(37.455971, 47.092705) rotate(-12.000000) translate(-37.455971, -47.092705) translate(6.455971, 15.592705)">
                            <rect id="Combined-Shape" fill="url(#linearGradient-1)" x="5.5067062e-14" y="2" width="60.2492308" height="60.1875" rx="15"></rect>
                            <g id="logo" transform="translate(17.000000, 21.000000)">
                                <path d="M25.9813316,12.2972973 C25.6163038,19.1502514 19.9439492,24.5945946 13,24.5945946 C6.05605084,24.5945946 0.383696182,19.1502514 0.0186684391,12.2972973 L25.9813316,12.2972973 Z M-5.00932629e-13,7.37246111 L-5.00658355e-13,2.98352785 C-5.00506878e-13,0.559586947 1.39181665,-0.0135887527 3.10919477,1.70378937 L8.78378378,7.37837838 L-5.00932629e-13,7.37246111 Z M26,7.37246111 L26,2.98352785 C26,0.559586947 24.6081833,-0.0135887527 22.8908052,1.70378937 L17.2162162,7.37837838 L26,7.37246111 Z M-3.58824082e-13,7.37837838 L26,7.37837838 L26,12.2972973 L-3.58824082e-13,12.2972973 L-3.58824082e-13,7.37837838 Z" id="Combined-Shape" fill="#FFFFFF"></path>
                                <path d="M25.3358583,10.891891 C23.1164305,6.3166194 18.4265967,3.16216216 13,3.16216216 C7.57340329,3.16216216 2.88356955,6.3166194 0.664141654,10.891891 L25.3358628,10.8918919 Z" id="Combined-Shape" fill="#FFFFFF"></path>
                                <ellipse id="Oval-5" fill="#71D270" cx="8.08108108" cy="13" rx="2.10810811" ry="2.10810811"></ellipse>
                                <circle id="Oval-5" fill="#71D270" cx="17.5675676" cy="13" r="2.10810811"></circle>
                            </g>
                        </g>
                        <g id="Group" transform="translate(166.157414, 55.593378) rotate(10.000000) translate(-166.157414, -55.593378) translate(134.157414, 23.093378)">
                            <rect id="Combined-Shape" fill="url(#linearGradient-2)" x="8.52651283e-14" y="2" width="62.5015385" height="62.4375" rx="15"></rect>
                            <g id="logo" transform="translate(18.000000, 21.000000)">
                                <path d="M25.9813316,12.2972973 C25.6163038,19.1502514 19.9439492,24.5945946 13,24.5945946 C6.05605084,24.5945946 0.383696182,19.1502514 0.0186684391,12.2972973 L25.9813316,12.2972973 Z M2.84217094e-14,7.37246111 L2.86959833e-14,2.98352785 C2.88474605e-14,0.559586947 1.39181665,-0.0135887527 3.10919477,1.70378937 L8.78378378,7.37837838 L2.84217094e-14,7.37246111 Z M26,7.37246111 L26,2.98352785 C26,0.559586947 24.6081833,-0.0135887527 22.8908052,1.70378937 L17.2162162,7.37837838 L26,7.37246111 Z M8.52651283e-14,7.37837838 L26,7.37837838 L26,12.2972973 L8.52651283e-14,12.2972973 L8.52651283e-14,7.37837838 Z" id="Combined-Shape" fill="#FFFFFF"></path>
                                <path d="M25.3358583,10.891891 C23.1164305,6.3166194 18.4265967,3.16216216 13,3.16216216 C7.57340329,3.16216216 2.88356955,6.3166194 0.664141654,10.891891 L25.3358628,10.8918919 Z" id="Combined-Shape" fill="#FFFFFF"></path>
                                <ellipse id="Oval-5" fill="#9983E3" cx="8.08108108" cy="13" rx="2.10810811" ry="2.10810811"></ellipse>
                                <ellipse id="Oval-5" fill="#9983E3" cx="17.5675676" cy="13" rx="2.10810811" ry="2.10810811"></ellipse>
                            </g>
                        </g>
                        <g id="Group" transform="translate(66.000000, 0.000000)">
                            <path d="M50.1138462,0 L14.9913775,0 C6.71688959,0 0,6.71463307 0,14.9975527 L0,55.3149473 C0,63.6024925 6.71186832,70.3125 14.9913775,70.3125 L55.3932379,70.3125 C63.6677258,70.3125 70.3846154,63.5978669 70.3846154,55.3149473 L70.3846154,19.9482364 L50.1138462,1.49880108e-15 Z" id="Combined-Shape" fill="url(#linearGradient-3)"></path>
                            <g id="logo" transform="translate(18.000000, 22.000000)">
                                <path d="M33.9755874,16.0810811 C33.4982435,25.0426364 26.0805489,32.1621622 17,32.1621622 C7.9194511,32.1621622 0.501756546,25.0426364 0.0244125743,16.0810811 L33.9755874,16.0810811 Z M0,9.64091069 L3.586658e-16,3.90153642 C5.56751451e-16,0.731767546 1.82006793,-0.0177699074 4.06587009,2.22803225 L11.4864865,9.64864865 L0,9.64091069 Z M34,9.64091069 L34,3.90153642 C34,0.731767546 32.1799321,-0.0177699074 29.9341299,2.22803225 L22.5135135,9.64864865 L34,9.64091069 Z M0,9.64864865 L34,9.64864865 L34,16.0810811 L0,16.0810811 L0,9.64864865 Z" id="Combined-Shape" fill="#FFFFFF"></path>
                                <path d="M33.1315071,14.243242 C30.2291783,8.26019459 24.0963188,4.13513514 17,4.13513514 C9.90368123,4.13513514 3.77082172,8.26019459 0.868492933,14.243242 L33.1315129,14.2432432 Z" id="Combined-Shape" fill="#FFFFFF"></path>
                                <ellipse id="Oval-5" fill="#7FA9E2" cx="10.5675676" cy="17" rx="2.75675676" ry="2.75675676"></ellipse>
                                <circle id="Oval-5" fill="#7FA9E2" cx="22.972973" cy="17" r="2.75675676"></circle>
                            </g>
                            <path d="M70.3771154,19.9408558 L70.3771154,19.9418564 L55.7521154,19.9418564 L55.7521154,19.9314669 C55.7496158,19.9314702 55.7471158,19.9314718 55.7446154,19.9314718 C52.6348274,19.9314718 50.1138462,17.4130735 50.1138462,14.3064718 L50.1138462,-3.13318815e-13 L70.3771154,19.9408558 Z" id="Combined-Shape" fill="#FFFFFF" opacity="0.4"></path>
                        </g>
                    </g>
                </g>
            </g>
        </g>
    </g>
</svg>