<?xml version="1.0" encoding="UTF-8"?>
<svg width="261px" height="120px" viewBox="0 0 261 120" version="1.1" xmlns="http://www.w3.org/2000/svg" xmlns:xlink="http://www.w3.org/1999/xlink">
    <!-- Generator: Sketch 41.1 (35376) - http://www.bohemiancoding.com/sketch -->
    <title>Картинка</title>
    <desc>Created with Sketch.</desc>
    <defs>
        <linearGradient x1="50%" y1="0%" x2="50%" y2="98.2481665%" id="linearGradient-1">
            <stop stop-color="#92DA7A" offset="0%"></stop>
            <stop stop-color="#55CB68" offset="100%"></stop>
        </linearGradient>
        <linearGradient x1="50%" y1="98.2481665%" x2="50%" y2="2.94902991e-15%" id="linearGradient-2">
            <stop stop-color="#8778E1" offset="0%"></stop>
            <stop stop-color="#AE8FE6" offset="100%"></stop>
        </linearGradient>
        <linearGradient x1="50%" y1="100%" x2="50%" y2="1.29743304%" id="linearGradient-3">
            <stop stop-color="#729BD3" offset="0%"></stop>
            <stop stop-color="#8DB7F1" offset="100%"></stop>
        </linearGradient>
    </defs>
    <g id="Page-1" stroke="none" stroke-width="1" fill="none" fill-rule="evenodd">
        <g id="До-загрузки-фото---Mobile" transform="translate(-57.000000, -745.000000)">
            <g id="Шаг-2.-Загрузка-фотографии" transform="translate(20.000000, 745.000000)">
                <g id="Картинка" transform="translate(33.000000, 0.000000)">
                    <g id="Group" transform="translate(49.609518, 62.636770) rotate(-12.000000) translate(-49.609518, -62.636770) translate(8.609518, 21.636770)">
                        <rect id="Combined-Shape" fill="url(#linearGradient-1)" x="-3.90798505e-14" y="1.64705882" width="79.741629" height="79.6599265" rx="15"></rect>
                        <g id="logo" transform="translate(22.500000, 26.794118)">
                            <path d="M34.3870565,16.2758347 C33.9039315,25.3459209 26.3964033,32.5516693 17.2058824,32.5516693 C8.01536141,32.5516693 0.507833182,25.3459209 0.0247082283,16.2758347 L34.3870565,16.2758347 Z M2.38031816e-13,9.75766912 L2.38394826e-13,3.94878686 C2.38595311e-13,0.740629782 1.84211028,-0.0179851139 4.11511073,2.25501534 L11.6255962,9.76550079 L2.38031816e-13,9.75766912 Z M34.4117647,9.75766912 L34.4117647,3.94878686 C34.4117647,0.740629782 32.5696544,-0.0179851139 30.296654,2.25501534 L22.7861685,9.76550079 L34.4117647,9.75766912 Z M4.29878355e-13,9.76550079 L34.4117647,9.76550079 L34.4117647,16.2758347 L4.29878355e-13,16.2758347 L4.29878355e-13,9.76550079 Z" id="Combined-Shape" fill="#FFFFFF"></path>
                            <path d="M33.5327537,14.4157381 C30.5952756,8.36023155 24.3881427,4.18521463 17.2058824,4.18521463 C10.023622,4.18521463 3.81648911,8.36023155 0.879011013,14.4157381 L33.5327596,14.4157393 Z" id="Combined-Shape" fill="#FFFFFF"></path>
                            <ellipse id="Oval-5" fill="#71D270" cx="10.6955485" cy="17.2058824" rx="2.79014308" ry="2.79014308"></ellipse>
                            <ellipse id="Oval-5" fill="#71D270" cx="23.2511924" cy="17.2058824" rx="2.79014308" ry="2.79014308"></ellipse>
                        </g>
                    </g>
                    <g id="Group" transform="translate(220.061603, 73.590525) rotate(10.000000) translate(-220.061603, -73.590525) translate(177.561603, 30.590525)">
                        <rect id="Combined-Shape" fill="url(#linearGradient-2)" x="-3.62376795e-13" y="2.64705882" width="82.7226244" height="82.6378676" rx="15"></rect>
                        <g id="logo" transform="translate(23.823529, 27.794118)">
                            <path d="M34.3870565,16.2758347 C33.9039315,25.3459209 26.3964033,32.5516693 17.2058824,32.5516693 C8.01536141,32.5516693 0.507833182,25.3459209 0.0247082283,16.2758347 L34.3870565,16.2758347 Z M-4.65405492e-13,9.75766912 L-4.65042482e-13,3.94878686 C-4.64841998e-13,0.740629782 1.84211028,-0.0179851139 4.11511073,2.25501534 L11.6255962,9.76550079 L-4.65405492e-13,9.75766912 Z M34.4117647,9.75766912 L34.4117647,3.94878686 C34.4117647,0.740629782 32.5696544,-0.0179851139 30.296654,2.25501534 L22.7861685,9.76550079 L34.4117647,9.75766912 Z M-2.66453526e-13,9.76550079 L34.4117647,9.76550079 L34.4117647,16.2758347 L-2.66453526e-13,16.2758347 L-2.66453526e-13,9.76550079 Z" id="Combined-Shape" fill="#FFFFFF"></path>
                            <path d="M33.5327537,14.4157381 C30.5952756,8.36023155 24.3881427,4.18521463 17.2058824,4.18521463 C10.023622,4.18521463 3.81648911,8.36023155 0.879011013,14.4157381 L33.5327596,14.4157393 Z" id="Combined-Shape" fill="#FFFFFF"></path>
                            <ellipse id="Oval-5" fill="#9983E3" cx="10.6955485" cy="17.2058824" rx="2.79014308" ry="2.79014308"></ellipse>
                            <ellipse id="Oval-5" fill="#9983E3" cx="23.2511924" cy="17.2058824" rx="2.79014308" ry="2.79014308"></ellipse>
                        </g>
                    </g>
                    <g id="Group" transform="translate(87.352941, 0.000000)">
                        <path d="M66.3271493,0 L14.9929992,0 C6.71828361,0 0,6.71728954 0,15.0034861 L0,78.0571757 C0,86.3492616 6.71259438,93.0606618 14.9929992,93.0606618 L78.1631094,93.0606618 C86.437825,93.0606618 93.1561086,86.3433722 93.1561086,78.0571757 L93.1561086,26.4020776 L66.3271493,1.55431223e-15 Z" id="Combined-Shape" fill="url(#linearGradient-3)"></path>
                        <g id="logo" transform="translate(23.823529, 30.117647)">
                            <path d="M44.9676892,20.2837838 C44.3359105,32.1446658 34.5183735,41.5675676 22.5,41.5675676 C10.4816265,41.5675676 0.664089546,32.1446658 0.03231076,20.2837838 L44.9676892,20.2837838 Z M0,11.7600288 L4.74704735e-16,4.16379821 C7.36876921e-16,-0.0314841307 2.40891344,-1.023519 5.38129864,1.94886621 L15.2027027,11.7702703 L0,11.7600288 Z M45,11.7600288 L45,4.16379821 C45,-0.0314841307 42.5910866,-1.023519 39.6187014,1.94886621 L29.7972973,11.7702703 L45,11.7600288 Z M0,11.7702703 L45,11.7702703 L45,20.2837838 L0,20.2837838 L0,11.7702703 Z" id="Combined-Shape" fill="#FFFFFF"></path>
                            <path d="M43.8505241,17.8513498 C40.0092065,9.93261049 31.8921866,4.47297297 22.5,4.47297297 C13.1078134,4.47297297 4.99079345,9.93261049 1.14947594,17.8513498 L43.8505318,17.8513514 Z" id="Combined-Shape" fill="#FFFFFF"></path>
                            <ellipse id="Oval-5" fill="#7FA9E2" cx="13.9864865" cy="21.5" rx="3.64864865" ry="3.64864865"></ellipse>
                            <ellipse id="Oval-5" fill="#7FA9E2" cx="30.4054054" cy="21.5" rx="3.64864865" ry="3.64864865"></ellipse>
                        </g>
                        <path d="M93.1461821,26.3923091 L93.1461821,26.3936335 L73.7895645,26.3936335 L73.7895645,26.3798827 C73.7862562,26.379887 73.7829473,26.3798892 73.779638,26.3798892 C69.6637422,26.3798892 66.3271493,23.046715 66.3271493,18.9350362 L66.3271493,-4.10116385e-13 L93.1461821,26.3923091 Z" id="Combined-Shape" fill="#FFFFFF" opacity="0.4"></path>
                    </g>
                </g>
            </g>
        </g>
    </g>
</svg>